<?xml version="1.0" encoding="utf-8"?>
<svg width="340.8962890625px" height="93.22750244140624px" xmlns="http://www.w3.org/2000/svg" viewBox="79.55185546875 28.386248779296878 340.8962890625 93.22750244140624" style="background: rgba(0, 0, 0, 0);" preserveAspectRatio="xMidYMid"><defs><linearGradient id="editing-sticker-gradient" x1="0.5" y1="0.2" x2="0.5" y2="0.8"><stop offset="0" stop-color="#fd9"></stop><stop offset="1" stop-color="#9df"></stop></linearGradient><filter id="editing-sticker" x="-100%" y="-100%" width="300%" height="300%"><feMorphology operator="erode" radius="1" in="SourceAlpha" result="alpha-erode"></feMorphology><feConvolveMatrix order="3,3" divisor="1" kernelMatrix="0 1 0 1 1 1 0 1 0" in="alpha-erode" result="alpha-round"></feConvolveMatrix><feMorphology operator="dilate" radius="3.5" in="alpha-round" result="dilate-shadow"></feMorphology><feGaussianBlur in="dilate-shadow" stdDeviation="1.5" result="shadow"></feGaussianBlur><feFlood flood-color="#fff" result="flood-sticker"></feFlood><feComposite operator="in" in="flood-sticker" in2="alpha-round" result="comp-sticker"></feComposite><feMorphology operator="dilate" radius="3" in="comp-sticker" result="morph-sticker"></feMorphology><feConvolveMatrix order="3,3" divisor="1" kernelMatrix="0 1 0 1 1 1 0 1 0" in="morph-sticker" result="sticker"></feConvolveMatrix><feMerge><feMergeNode in="shadow"></feMergeNode><feMergeNode in="sticker"></feMergeNode><feMergeNode in="SourceGraphic"></feMergeNode></feMerge></filter></defs><g filter="url(#editing-sticker)"><g transform="translate(131.95843625068665, 96.4375)"><path d="M17.18-14.28L8.99-13.86L9.32-1.60L21.46-1.89L22.72-7.48L24.19-7.10L24.36-1.89L24.65 0.42L19.57 0L7.22 0L1.47 0.42L1.55-1.05L4.91-2.10L5.33-14.99L4.91-27.30L1.51-28.31L1.72-29.78L7.01-29.40L19.11-29.40L23.18-29.82L22.81-27.76L22.72-22.26L21.21-21.92L20.12-27.51L9.32-27.85L8.99-16.04L17.18-16.30L17.98-20.29L19.66-19.74L19.24-14.95L19.66-9.87L17.98-10.12L17.18-14.28ZM31.46-5.75L32.59-2.35L35.74-1.55L39.98-3.99L39.82-9.66L36.16-9.66L32.93-8.36L31.46-5.75ZM43.39-16.63L43.43-7.64L43.72-1.72L46.62-1.30L46.33 0.08L40.49 0.59L39.94-1.89L39.73-1.89L35.57 0.59L31.21 0.59L28.27-1.55L27.38-5.67L29.23-8.95L34.27-11.13L39.82-11.34L39.65-16.59L38.85-19.19L35.45-20.16L31.37-19.19L31.25-14.74L29.61-14.41L28.52-20.16L33.35-21.59L38.77-21.84L42.04-20.24L43.39-16.63ZM51.24-6.30L51.58-1.64L55.06-1.09L58.97-1.64L59.89-4.49L58.76-6.68L50.95-11.42L49.27-14.07L49.18-18.52L52.16-21.04L56.57-21.84L62.75-20.58L61.87-14.41L60.10-14.99L59.30-19.36L56.41-19.91L53.26-19.19L52.46-16.88L53.47-14.41L61.53-9.79L63.50-7.31L63.67-3.36L60.82 0L55.78 0.84L52.29 0.67L48.38-0.84L49.43-6.89L51.24-6.30ZM71.86 10.92L69.76 11.34L68.46 9.45L67.20 6.01L68.80 5.42L71.15 8.90L73.29 6.85L76.23 0.13L69.72-16.55L68.25-19.11L65.27-19.74L65.48-21.21L70.60-21L75.60-21.21L75.52-19.74L73.08-19.03L73.71-16.42L75.98-10.63L78.29-3.86L78.41-3.86L80.51-10.46L82.66-16.46L83.08-19.15L80.72-19.74L80.93-21.21L85.43-21L89.00-21.21L88.91-19.74L86.35-18.98L84.88-15.83L78.62 0.88L75.01 7.81L71.86 10.92ZM112.14-13.10L107.90-13.36L108.32-2.10L112.39-1.26L112.18 0.42L106.22 0L100.46 0.42L100.55-1.26L104.03-2.10L104.33-12.85L104.12-27.30L100.67-28.14L100.88-29.82L106.01-29.40L111.64-29.86L115.08-29.61L118.48-28.52L121.80-26.00L122.85-21.67L122.09-17.01L119.53-15.16L116.76-14.36L122.77-1.64L126.04-1.64L126.29-0.25L121.38 0.76L118.65-1.47L113.44-13.44L112.14-13.10ZM114.32-27.89L108.19-27.51L107.94-15.20L111.64-14.99L117.31-17.14L118.52-20.79L117.64-24.65L114.32-27.89ZM138.77-10.84L131.50-11.30L131.46-10.92L132.59-5.00L135.91-1.72L139.78-1.30L143.72-3.40L144.48-2.31L141.16 0.34L137.21 0.84L133.10-0.13L129.53-3.11L127.39-9.41L128.10-15.04L130.28-18.98L134.69-21.42L138.39-21.88L141.33-20.96L143.60-18.90L144.90-15.16L144.94-11.68L144.35-11.21L138.77-10.84ZM136.79-19.99L133.60-18.10L131.96-14.91L131.71-13.02L138.10-12.94L140.99-13.57L140.74-17.47L139.48-19.61L136.79-19.99ZM163.09-14.20L162.33-19.45L157.04-19.87L153.26-15.83L152.17-11.47L152.71-7.01L155.40-2.14L160.57-1.30L164.51-3.40L165.27-2.31L161.95 0.34L158.00 0.84L152.00-0.88L148.26-6.97L148.22-13.99L151.07-18.98L155.48-21.29L159.31-21.84L165.73-21L164.47-14.41L163.09-14.20ZM175.43-20.96L175.27-17.56L175.43-17.56L178.04-20.54L180.89-21.80L184.04-21L183.33-14.74L181.86-15.04L180.81-19.36L178.08-18.48L175.10-14.99L174.89-11.05L175.01-6.97L175.18-2.10L179.38-1.26L179.17 0.21L173.08 0L167.96 0.21L168.04-1.26L170.81-2.10L171.02-6.51L170.94-14.57L170.73-18.94L167.75-18.82L167.54-20.29L173.33-21.42L175.43-20.96ZM192.82-20.96L192.57-14.49L192.57-5.33L193.70-2.56L197.23-2.10L201.81-4.83L201.81-9.28L201.77-14.53L201.56-18.90L198.58-18.77L198.37-20.24L204.16-21.38L206.26-20.92L205.97-15.20L205.93-11.84L206.01-9.28L206.01-1.72L208.95-0.88L208.74 0.59L202.99 0.59L202.02-2.94L197.27 0.55L192.99 0.84L189.13-1.81L188.50-5.17L188.54-14.15L188.12-18.94L185.14-18.82L184.93-20.29L190.72-21.42L192.82-20.96ZM212.27-28.10L213.28-29.74L215.21-30.66L217.22-29.99L218.15-27.72L216.97-25.87L215.00-25.07L213.15-26.21L212.27-28.10ZM218.32-20.96L218.02-15.25L217.77-11.05L217.90-6.97L218.06-2.10L221.13-1.26L220.92 0.21L215.96 0L210.84 0.21L210.92-1.26L213.70-2.10L213.91-6.51L213.82-14.57L213.61-18.94L210.63-18.82L210.42-20.29L216.22-21.42L218.32-20.96ZM235.16-1.01L232.81 0.42L229.95 0.84L226.97-0.17L225.62-3.53L225.83-11.34L225.62-18.40L222.73-18.82L222.47-20.29L225.79-21.17L227.30-25.41L229.45-25.41L229.32-20.71L234.40-20.54L234.15-18.69L229.74-18.40L229.57-16.46L229.74-3.74L230.58-1.22L234.53-2.27L235.16-1.01Z" fill="url(#editing-sticker-gradient)" stroke="#000000" stroke-width="2.5"></path></g></g><style>text {
  font-size: 64px;
  font-family: Arial Black;
  dominant-baseline: central;
  text-anchor: middle;
}</style></svg>