<svg width="1326.3224609375px" height="308.02255859375px" xmlns="http://www.w3.org/2000/svg" viewBox="-413.16123046875 -79.01127929687499 1326.3224609375 308.02255859375" style="background: rgba(0, 0, 0, 0);" preserveAspectRatio="xMidYMid"><filter id="editing-goldstamp"><feFlood flood-color="#797549" result="flood"></feFlood><feMorphology operator="dilate" radius="1" in="SourceGraphic" result="outline"></feMorphology><feComposite operator="in" in="flood" in2="outline" result="outline2"></feComposite><feGaussianBlur stdDeviation="4" in="SourceAlpha" result="blur"></feGaussianBlur><feSpecularLighting surfaceScale="2" specularConstant="0.7" specularExponent="10" lighting-color="#white" in="blur" result="specular"><fePointLight x="200" y="-1000" z="300"></fePointLight></feSpecularLighting><feComposite operator="in" in="specular" in2="SourceGraphic" result="specular2"></feComposite><feComposite in="SourceGraphic" in2="specular2" operator="arithmetic" k1="3" k2="2" k3="1" k4="0" result="specular3"></feComposite><feMerge><feMergeNode in="outline2"></feMergeNode><feMergeNode in="specular3"></feMergeNode></feMerge></filter><g filter="url(#editing-goldstamp)"><g transform="translate(-232.11998558044434, 142.25999450683594)"><path d="M7.51 0L7.51-97.47L77.76-97.47L77.76-69.40L45.47-69.40L45.47-61.40L77.64-61.40L77.64-37.48L45.47-37.48L45.47-28.26L79.90-28.26L79.90 0L7.51 0ZM102.66-6.74L102.66-6.74L102.66-6.74Q97.78-11.29 94.88-18.22L94.88-18.22L94.88-18.22Q91.98-25.15 91.98-33.14L91.98-33.14L91.98-33.14Q91.98-41.14 93.57-47.00L93.57-47.00L93.57-47.00Q96.74-58.65 104.68-66.59L104.68-66.59L104.68-66.59Q108.46-70.50 113.10-73.18L113.10-73.18L113.10-73.18Q122.62-78.74 133.21-78.74L133.21-78.74L133.21-78.74Q143.80-78.74 151.79-71.72L151.79-71.72L151.79-71.72Q154.36-69.46 156.25-66.53L156.25-66.53L164.98-75.87L185.00-75.87L185.00 0L164.98 0L156.25-12.63L156.25-12.63Q146.24 2.14 125.92 2.20L125.92 2.20L125.92 2.20Q120.30 2.26 113.92 0.03L113.92 0.03L113.92 0.03Q107.54-2.20 102.66-6.74ZM152.10-31.25L152.10-52.86L152.10-52.86Q149.90-54.14 146.85-54.14L146.85-54.14L146.85-54.14Q143.80-54.14 140.41-51.97L140.41-51.97L140.41-51.97Q137.02-49.80 134.34-46.51L134.34-46.51L134.34-46.51Q128.36-39.12 128.36-31.49L128.36-31.49L128.36-31.49Q128.36-26.12 131.65-23.93L131.65-23.93L131.65-23.93Q134.70-21.91 140.96-24.51L140.96-24.51L140.96-24.51Q147.22-27.10 152.10-31.25L152.10-31.25ZM255.68-76.11L255.68-53.10L255.68-53.10Q242.13-56.27 235.96-56.27L235.96-56.27L235.96-56.27Q234.19-56.27 233.25-55.48L233.25-55.48L233.25-55.48Q232.30-54.69 232.30-53.71L232.30-53.71L232.30-53.71Q232.30-51.70 237.34-49.65L237.34-49.65L237.34-49.65Q242.37-47.61 246.58-45.65L246.58-45.65L246.58-45.65Q250.79-43.70 253.85-40.89L253.85-40.89L253.85-40.89Q260.44-34.79 260.44-22.74L260.44-22.74L260.44-22.74Q260.44-10.68 251.71-4.21L251.71-4.21L251.71-4.21Q242.98 2.26 228.09 2.26L228.09 2.26L228.09 2.26Q213.20 2.26 204.28-0.49L204.28-0.49L204.28-0.49Q200.38-1.65 198.30-3.23L198.30-3.23L198.30-25.88L198.30-25.88Q199.16-25.82 201.29-25.09L201.29-25.09L201.29-25.09Q203.43-24.35 208.37-22.80L208.37-22.80L208.37-22.80Q213.32-21.24 217.38-21.24L217.38-21.24L217.38-21.24Q221.44-21.24 221.44-24.23L221.44-24.23L221.44-24.23Q221.44-26.55 217.77-28.75L217.77-28.75L217.77-28.75Q216.13-29.72 214.05-30.76L214.05-30.76L214.05-30.76Q205.44-34.97 201.75-40.50L201.75-40.50L201.75-40.50Q198.06-46.02 198.06-53.47L198.06-53.47L198.06-53.47Q198.06-66.71 208.80-73.24L208.80-73.24L208.80-73.24Q217.83-78.74 232.42-78.74L232.42-78.74L232.42-78.74Q242.61-78.74 252.87-76.72L252.87-76.72L252.87-76.72Q255.07-76.29 255.68-76.11L255.68-76.11ZM277.83 20.02L277.83-1.65L277.83-1.65Q284.30 0.12 294.07 0.12L294.07 0.12L294.07 0.12Q300.23 0.12 302.31-5.13L302.31-5.13L302.31-5.13Q302.92-6.71 302.92-8.42L302.92-8.42L302.92-8.42Q302.92-10.13 302.31-12.02L302.31-12.02L270.94-75.87L307.31-75.87L320.43-46.51L332.70-75.87L364.69-75.87L336.18-5.00L336.18-5.00Q330.51 8.85 323.67 15.44L323.67 15.44L323.67 15.44Q315.31 23.50 303.04 23.50L303.04 23.50L303.04 23.50Q286.25 23.50 277.83 20.02L277.83 20.02ZM466.86-66.65L466.86-66.65L466.86-66.65Q466.86-75.26 460.45-75.26L460.45-75.26L460.45-75.26Q457.70-75.26 452.82-73.24L452.82-73.24L444.70-69.89L444.70-46.02L444.70-46.02Q466.86-54.26 466.86-66.65ZM503.11-65.61L503.11-65.61L503.11-65.61Q503.11-46.08 483.83-34.61L483.83-34.61L510.31 0L462.10 0L444.95-28.26L444.95 0L405.09 0L405.09-97.47L405.09-97.47Q443.79-100.22 455.81-100.22L455.81-100.22L455.81-100.22Q467.83-100.22 474.12-98.75L474.12-98.75L474.12-98.75Q491.46-94.79 498.90-81.79L498.90-81.79L498.90-81.79Q503.05-74.34 503.11-65.61ZM566.22-52.73L566.35-54.14L566.35-54.14Q566.35-59.51 561.34-59.51L561.34-59.51L561.34-59.51Q555.60-58.96 553.89-53.59L553.89-53.59L553.89-53.59Q553.04-51.03 552.70-47.64L552.70-47.64L552.70-47.64Q552.37-44.25 551.70-40.41L551.70-40.41L565.06-43.40L566.22-52.73ZM558.11-26.37L558.11-26.37L558.11-26.37Q558.11-26.37 554.75-26.37L554.75-26.37L554.75-26.37Q553.16-26.37 551.70-26.49L551.70-26.49L551.70-26.49Q551.70-19.23 559.45-18.55L559.45-18.55L559.45-18.55Q561.58-18.37 563.60-18.37L563.60-18.37L563.60-18.37Q568.79-18.37 576.63-20.75L576.63-20.75L576.63-20.75Q584.47-23.13 590.70-28.50L590.70-28.50L594.48-9.52L594.48-9.52Q580.87 2.26 553.34 2.26L553.34 2.26L553.34 2.26Q537.54 2.26 526.18-6.96L526.18-6.96L526.18-6.96Q513.85-17.03 513.85-34.85L513.85-34.85L513.85-34.85Q513.85-48.28 520.81-58.96L520.81-58.96L520.81-58.96Q527.28-68.73 538.33-73.79L538.33-73.79L538.33-73.79Q549.38-78.86 562.19-78.86L562.19-78.86L562.19-78.86Q578.80-78.86 587.31-71.59L587.31-71.59L587.31-71.59Q595.83-64.33 595.79-53.65L595.79-53.65L595.79-53.65Q595.76-42.97 585.57-34.67L585.57-34.67L585.57-34.67Q575.38-26.37 558.11-26.37ZM649.66-23.13L649.66-23.13L649.66-23.13Q655.82-23.13 667.48-31.86L667.48-31.86L667.48-2.01L667.48-2.01Q647.46 5.55 630.55 0.12L630.55 0.12L630.55 0.12Q613.65-5.31 606.57-19.29L606.57-19.29L606.57-19.29Q603.03-26.37 603.03-35.89L603.03-35.89L603.03-35.89Q603.03-55.05 616.21-66.96L616.21-66.96L616.21-66.96Q629.39-78.86 650.51-78.86L650.51-78.86L650.51-78.86Q659.24-78.86 666.26-76.23L666.26-76.23L666.26-52.73L666.26-52.73Q664.61-54.14 661.62-54.14L661.62-54.14L661.62-54.14Q658.63-54.14 655.21-52.25L655.21-52.25L655.21-52.25Q651.79-50.35 648.99-47.18L648.99-47.18L648.99-47.18Q642.52-39.86 642.55-32.14L642.55-32.14L642.55-32.14Q642.58-24.41 647.22-23.44L647.22-23.44L647.22-23.44Q648.44-23.19 649.66-23.13ZM736.02-78.61L736.02-47.24L736.02-47.24Q730.41-47.24 724.49-43.15L724.49-43.15L724.49-43.15Q718.57-39.06 718.51-35.40L718.51-35.40L718.51 0L681.76 0L681.76-75.87L718.51-75.87L718.51-67.75L718.51-67.75Q721.62-72.45 726.23-75.26L726.23-75.26L726.23-75.26Q730.83-78.06 736.02-78.61L736.02-78.61ZM782.78-75.87L782.78-40.53L782.78-40.53Q782.78-20.51 792.48-20.51L792.48-20.51L792.48-20.51Q797.36-20.51 798.16-25.27L798.16-25.27L798.16-25.27Q798.40-26.73 798.40-28.50L798.40-28.50L798.40-75.87L834.66-75.87L834.66 0L814.64 0L805.91-11.90L805.91-11.90Q798.16-1.34 783.51 1.83L783.51 1.83L783.51 1.83Q765.56 5.68 754.58-4.27L754.58-4.27L754.58-4.27Q746.28-11.78 746.28-24.11L746.28-24.11L746.28-75.87L782.78-75.87ZM868.07-111.02L868.07-111.02L868.07-111.02Q877.01-111.02 881.35-107.27L881.35-107.27L881.35-107.27Q885.68-103.52 885.65-97.72L885.65-97.72L885.65-97.72Q885.62-91.92 880.10-87.04L880.10-87.04L880.10-87.04Q874.57-82.15 865.36-82.15L865.36-82.15L865.36-82.15Q852.42-82.15 849.24-89.97L849.24-89.97L849.24-89.97Q848.33-92.16 848.33-94.85L848.33-94.85L848.33-94.85Q848.33-97.53 849.61-100.46L849.61-100.46L849.61-100.46Q850.89-103.39 853.45-105.71L853.45-105.71L853.45-105.71Q859.13-111.02 868.07-111.02ZM884.58-75.87L884.58 0L849.24 0L849.24-75.87L884.58-75.87ZM956.73-21.00L956.73-5.49L956.73-5.49Q945.13 2.38 932.16 2.38L932.16 2.38L932.16 2.38Q919.19 2.38 911.07-4.97L911.07-4.97L911.07-4.97Q902.95-12.33 902.95-24.78L902.95-24.78L902.95-56.52L896.00-56.52L896.00-75.87L902.95-75.87L902.95-96.37L939.45-100.10L939.45-75.87L956.73-75.87L956.73-56.52L939.45-56.52L939.45-37.35L939.45-37.35Q939.45-28.75 943.33-24.87L943.33-24.87L943.33-24.87Q947.20-21.00 956.73-21.00L956.73-21.00Z" fill="#999569"></path></g></g><style>text {
  font-size: 164px;
  font-family: Arial Black;
  dominant-baseline: central;
  text-anchor: middle;
}</style></svg>